<svg xmlns="http://www.w3.org/2000/svg" width="760" height="520" viewBox="0 0 760 520" role="img" aria-label="Answer length alignment: enriched VLM LoRA test">
<style>
text{font-family:Arial,Helvetica,sans-serif;fill:#222}.title{font-size:22px;font-weight:700}.axis-label{font-size:14px;font-weight:600}.tick{font-size:11px;fill:#555}.label{font-size:12px}.value{font-size:12px;font-weight:700}.axis{stroke:#333;stroke-width:1.3}.grid{stroke:#ddd;stroke-width:1}
</style>
<rect width="100%" height="100%" fill="white"/>
<text x="380.0" y="32" text-anchor="middle" class="title">Answer length alignment: enriched VLM LoRA test</text>
<text x="395.0" y="498" text-anchor="middle" class="axis-label">Reference words</text>
<text x="22" y="260.0" transform="rotate(-90 22 260.0)" text-anchor="middle" class="axis-label">Prediction words</text>
<line x1="80" y1="70" x2="80" y2="450" class="axis"/>
<line x1="80" y1="450" x2="710" y2="450" class="axis"/>
<line x1="80" y1="450" x2="710" y2="70" stroke="#999" stroke-dasharray="5,5"/>
<line x1="80.0" y1="70" x2="80.0" y2="450" class="grid"/>
<line x1="80" y1="450.0" x2="710" y2="450.0" class="grid"/>
<text x="80.0" y="470" text-anchor="middle" class="tick">0</text>
<text x="70" y="454.0" text-anchor="end" class="tick">0</text>
<line x1="206.0" y1="70" x2="206.0" y2="450" class="grid"/>
<line x1="80" y1="374.0" x2="710" y2="374.0" class="grid"/>
<text x="206.0" y="470" text-anchor="middle" class="tick">26</text>
<text x="70" y="378.0" text-anchor="end" class="tick">26</text>
<line x1="332.0" y1="70" x2="332.0" y2="450" class="grid"/>
<line x1="80" y1="298.0" x2="710" y2="298.0" class="grid"/>
<text x="332.0" y="470" text-anchor="middle" class="tick">52</text>
<text x="70" y="302.0" text-anchor="end" class="tick">52</text>
<line x1="458.0" y1="70" x2="458.0" y2="450" class="grid"/>
<line x1="80" y1="222.0" x2="710" y2="222.0" class="grid"/>
<text x="458.0" y="470" text-anchor="middle" class="tick">78</text>
<text x="70" y="226.0" text-anchor="end" class="tick">78</text>
<line x1="584.0" y1="70" x2="584.0" y2="450" class="grid"/>
<line x1="80" y1="146.0" x2="710" y2="146.0" class="grid"/>
<text x="584.0" y="470" text-anchor="middle" class="tick">104</text>
<text x="70" y="150.0" text-anchor="end" class="tick">104</text>
<line x1="710.0" y1="70" x2="710.0" y2="450" class="grid"/>
<line x1="80" y1="70.0" x2="710" y2="70.0" class="grid"/>
<text x="710.0" y="470" text-anchor="middle" class="tick">130</text>
<text x="70" y="74.0" text-anchor="end" class="tick">130</text>
<circle cx="380.9" cy="341.7" r="3" fill="#4C78A8" opacity="0.55"/>
<circle cx="380.9" cy="332.9" r="3" fill="#4C78A8" opacity="0.55"/>
<circle cx="201.3" cy="347.5" r="3" fill="#4C78A8" opacity="0.55"/>
<circle cx="201.3" cy="356.3" r="3" fill="#4C78A8" opacity="0.55"/>
<circle cx="410.0" cy="204.1" r="3" fill="#4C78A8" opacity="0.55"/>
<circle cx="410.0" cy="268.5" r="3" fill="#4C78A8" opacity="0.55"/>
<circle cx="424.6" cy="330.0" r="3" fill="#4C78A8" opacity="0.55"/>
<circle cx="424.6" cy="330.0" r="3" fill="#4C78A8" opacity="0.55"/>
<circle cx="424.6" cy="330.0" r="3" fill="#4C78A8" opacity="0.55"/>
<circle cx="337.2" cy="286.1" r="3" fill="#4C78A8" opacity="0.55"/>
<circle cx="337.2" cy="327.0" r="3" fill="#4C78A8" opacity="0.55"/>
<circle cx="337.2" cy="277.3" r="3" fill="#4C78A8" opacity="0.55"/>
<circle cx="337.2" cy="286.1" r="3" fill="#4C78A8" opacity="0.55"/>
<circle cx="385.8" cy="157.2" r="3" fill="#4C78A8" opacity="0.55"/>
<circle cx="385.8" cy="262.6" r="3" fill="#4C78A8" opacity="0.55"/>
<circle cx="385.8" cy="157.2" r="3" fill="#4C78A8" opacity="0.55"/>
<circle cx="385.8" cy="198.2" r="3" fill="#4C78A8" opacity="0.55"/>
<circle cx="405.2" cy="286.1" r="3" fill="#4C78A8" opacity="0.55"/>
<circle cx="405.2" cy="209.9" r="3" fill="#4C78A8" opacity="0.55"/>
<circle cx="405.2" cy="286.1" r="3" fill="#4C78A8" opacity="0.55"/>
<circle cx="405.2" cy="195.3" r="3" fill="#4C78A8" opacity="0.55"/>
<circle cx="405.2" cy="230.4" r="3" fill="#4C78A8" opacity="0.55"/>
<circle cx="337.2" cy="227.5" r="3" fill="#4C78A8" opacity="0.55"/>
<circle cx="337.2" cy="324.1" r="3" fill="#4C78A8" opacity="0.55"/>
<circle cx="337.2" cy="321.2" r="3" fill="#4C78A8" opacity="0.55"/>
<circle cx="201.3" cy="330.0" r="3" fill="#4C78A8" opacity="0.55"/>
<circle cx="201.3" cy="330.0" r="3" fill="#4C78A8" opacity="0.55"/>
<circle cx="201.3" cy="300.7" r="3" fill="#4C78A8" opacity="0.55"/>
<circle cx="269.3" cy="350.5" r="3" fill="#4C78A8" opacity="0.55"/>
<circle cx="337.2" cy="332.9" r="3" fill="#4C78A8" opacity="0.55"/>
<circle cx="337.2" cy="324.1" r="3" fill="#4C78A8" opacity="0.55"/>
<circle cx="337.2" cy="332.9" r="3" fill="#4C78A8" opacity="0.55"/>
<circle cx="337.2" cy="324.1" r="3" fill="#4C78A8" opacity="0.55"/>
<circle cx="337.2" cy="324.1" r="3" fill="#4C78A8" opacity="0.55"/>
<circle cx="293.6" cy="236.3" r="3" fill="#4C78A8" opacity="0.55"/>
<circle cx="293.6" cy="236.3" r="3" fill="#4C78A8" opacity="0.55"/>
<circle cx="293.6" cy="236.3" r="3" fill="#4C78A8" opacity="0.55"/>
<circle cx="293.6" cy="236.3" r="3" fill="#4C78A8" opacity="0.55"/>
<circle cx="196.5" cy="330.0" r="3" fill="#4C78A8" opacity="0.55"/>
<circle cx="196.5" cy="330.0" r="3" fill="#4C78A8" opacity="0.55"/>
<circle cx="196.5" cy="330.0" r="3" fill="#4C78A8" opacity="0.55"/>
<circle cx="196.5" cy="245.1" r="3" fill="#4C78A8" opacity="0.55"/>
<circle cx="512.0" cy="233.4" r="3" fill="#4C78A8" opacity="0.55"/>
<circle cx="429.5" cy="236.3" r="3" fill="#4C78A8" opacity="0.55"/>
<circle cx="429.5" cy="233.4" r="3" fill="#4C78A8" opacity="0.55"/>
<circle cx="429.5" cy="335.8" r="3" fill="#4C78A8" opacity="0.55"/>
<circle cx="429.5" cy="286.1" r="3" fill="#4C78A8" opacity="0.55"/>
<circle cx="419.8" cy="195.3" r="3" fill="#4C78A8" opacity="0.55"/>
<circle cx="390.6" cy="306.5" r="3" fill="#4C78A8" opacity="0.55"/>
<circle cx="390.6" cy="253.9" r="3" fill="#4C78A8" opacity="0.55"/>
<circle cx="390.6" cy="271.4" r="3" fill="#4C78A8" opacity="0.55"/>
<circle cx="390.6" cy="283.1" r="3" fill="#4C78A8" opacity="0.55"/>
<circle cx="390.6" cy="262.6" r="3" fill="#4C78A8" opacity="0.55"/>
<circle cx="390.6" cy="309.5" r="3" fill="#4C78A8" opacity="0.55"/>
<circle cx="167.4" cy="300.7" r="3" fill="#4C78A8" opacity="0.55"/>
<circle cx="162.5" cy="350.5" r="3" fill="#4C78A8" opacity="0.55"/>
<circle cx="162.5" cy="368.0" r="3" fill="#4C78A8" opacity="0.55"/>
<circle cx="162.5" cy="335.8" r="3" fill="#4C78A8" opacity="0.55"/>
<circle cx="162.5" cy="350.5" r="3" fill="#4C78A8" opacity="0.55"/>
<circle cx="230.5" cy="359.2" r="3" fill="#4C78A8" opacity="0.55"/>
<circle cx="230.5" cy="359.2" r="3" fill="#4C78A8" opacity="0.55"/>
<circle cx="230.5" cy="362.2" r="3" fill="#4C78A8" opacity="0.55"/>
<circle cx="313.0" cy="344.6" r="3" fill="#4C78A8" opacity="0.55"/>
<circle cx="313.0" cy="344.6" r="3" fill="#4C78A8" opacity="0.55"/>
<circle cx="313.0" cy="344.6" r="3" fill="#4C78A8" opacity="0.55"/>
<circle cx="313.0" cy="271.4" r="3" fill="#4C78A8" opacity="0.55"/>
<circle cx="313.0" cy="291.9" r="3" fill="#4C78A8" opacity="0.55"/>
<circle cx="313.0" cy="344.6" r="3" fill="#4C78A8" opacity="0.55"/>
<circle cx="366.4" cy="359.2" r="3" fill="#4C78A8" opacity="0.55"/>
<circle cx="366.4" cy="365.1" r="3" fill="#4C78A8" opacity="0.55"/>
<circle cx="366.4" cy="324.1" r="3" fill="#4C78A8" opacity="0.55"/>
<circle cx="366.4" cy="365.1" r="3" fill="#4C78A8" opacity="0.55"/>
<circle cx="152.8" cy="338.8" r="3" fill="#4C78A8" opacity="0.55"/>
<circle cx="152.8" cy="353.4" r="3" fill="#4C78A8" opacity="0.55"/>
<circle cx="152.8" cy="353.4" r="3" fill="#4C78A8" opacity="0.55"/>
<circle cx="152.8" cy="353.4" r="3" fill="#4C78A8" opacity="0.55"/>
<circle cx="152.8" cy="353.4" r="3" fill="#4C78A8" opacity="0.55"/>
<circle cx="152.8" cy="338.8" r="3" fill="#4C78A8" opacity="0.55"/>
<circle cx="390.6" cy="347.5" r="3" fill="#4C78A8" opacity="0.55"/>
<circle cx="390.6" cy="347.5" r="3" fill="#4C78A8" opacity="0.55"/>
<circle cx="390.6" cy="347.5" r="3" fill="#4C78A8" opacity="0.55"/>
<circle cx="274.1" cy="350.5" r="3" fill="#4C78A8" opacity="0.55"/>
<circle cx="274.1" cy="350.5" r="3" fill="#4C78A8" opacity="0.55"/>
<circle cx="274.1" cy="356.3" r="3" fill="#4C78A8" opacity="0.55"/>
<circle cx="114.0" cy="350.5" r="3" fill="#4C78A8" opacity="0.55"/>
<circle cx="371.2" cy="338.8" r="3" fill="#4C78A8" opacity="0.55"/>
<circle cx="371.2" cy="347.5" r="3" fill="#4C78A8" opacity="0.55"/>
<circle cx="152.8" cy="221.6" r="3" fill="#4C78A8" opacity="0.55"/>
<circle cx="152.8" cy="344.6" r="3" fill="#4C78A8" opacity="0.55"/>
<circle cx="211.0" cy="280.2" r="3" fill="#4C78A8" opacity="0.55"/>
<circle cx="211.0" cy="268.5" r="3" fill="#4C78A8" opacity="0.55"/>
<circle cx="448.9" cy="330.0" r="3" fill="#4C78A8" opacity="0.55"/>
<circle cx="448.9" cy="341.7" r="3" fill="#4C78A8" opacity="0.55"/>
<circle cx="448.9" cy="207.0" r="3" fill="#4C78A8" opacity="0.55"/>
<circle cx="448.9" cy="330.0" r="3" fill="#4C78A8" opacity="0.55"/>
<circle cx="448.9" cy="335.8" r="3" fill="#4C78A8" opacity="0.55"/>
<circle cx="269.3" cy="171.9" r="3" fill="#4C78A8" opacity="0.55"/>
<circle cx="269.3" cy="332.9" r="3" fill="#4C78A8" opacity="0.55"/>
<circle cx="269.3" cy="344.6" r="3" fill="#4C78A8" opacity="0.55"/>
<circle cx="269.3" cy="344.6" r="3" fill="#4C78A8" opacity="0.55"/>
<circle cx="269.3" cy="306.5" r="3" fill="#4C78A8" opacity="0.55"/>
<circle cx="405.2" cy="245.1" r="3" fill="#4C78A8" opacity="0.55"/>
<circle cx="371.2" cy="353.4" r="3" fill="#4C78A8" opacity="0.55"/>
<circle cx="371.2" cy="365.1" r="3" fill="#4C78A8" opacity="0.55"/>
<circle cx="371.2" cy="353.4" r="3" fill="#4C78A8" opacity="0.55"/>
<circle cx="371.2" cy="353.4" r="3" fill="#4C78A8" opacity="0.55"/>
<circle cx="371.2" cy="365.1" r="3" fill="#4C78A8" opacity="0.55"/>
<circle cx="371.2" cy="353.4" r="3" fill="#4C78A8" opacity="0.55"/>
<circle cx="371.2" cy="365.1" r="3" fill="#4C78A8" opacity="0.55"/>
<circle cx="371.2" cy="330.0" r="3" fill="#4C78A8" opacity="0.55"/>
<circle cx="371.2" cy="274.3" r="3" fill="#4C78A8" opacity="0.55"/>
<circle cx="371.2" cy="347.5" r="3" fill="#4C78A8" opacity="0.55"/>
<circle cx="371.2" cy="365.1" r="3" fill="#4C78A8" opacity="0.55"/>
<circle cx="371.2" cy="353.4" r="3" fill="#4C78A8" opacity="0.55"/>
<circle cx="434.3" cy="248.0" r="3" fill="#4C78A8" opacity="0.55"/>
<circle cx="434.3" cy="136.7" r="3" fill="#4C78A8" opacity="0.55"/>
<circle cx="434.3" cy="104.5" r="3" fill="#4C78A8" opacity="0.55"/>
<circle cx="434.3" cy="274.3" r="3" fill="#4C78A8" opacity="0.55"/>
<circle cx="434.3" cy="286.1" r="3" fill="#4C78A8" opacity="0.55"/>
<circle cx="434.3" cy="248.0" r="3" fill="#4C78A8" opacity="0.55"/>
<circle cx="434.3" cy="133.8" r="3" fill="#4C78A8" opacity="0.55"/>
<circle cx="376.1" cy="330.0" r="3" fill="#4C78A8" opacity="0.55"/>
<circle cx="400.3" cy="356.3" r="3" fill="#4C78A8" opacity="0.55"/>
<circle cx="400.3" cy="356.3" r="3" fill="#4C78A8" opacity="0.55"/>
<circle cx="400.3" cy="350.5" r="3" fill="#4C78A8" opacity="0.55"/>
<circle cx="400.3" cy="350.5" r="3" fill="#4C78A8" opacity="0.55"/>
<circle cx="400.3" cy="350.5" r="3" fill="#4C78A8" opacity="0.55"/>
<circle cx="293.6" cy="300.7" r="3" fill="#4C78A8" opacity="0.55"/>
<circle cx="293.6" cy="250.9" r="3" fill="#4C78A8" opacity="0.55"/>
<circle cx="293.6" cy="221.6" r="3" fill="#4C78A8" opacity="0.55"/>
<circle cx="385.8" cy="394.4" r="3" fill="#4C78A8" opacity="0.55"/>
<circle cx="385.8" cy="332.9" r="3" fill="#4C78A8" opacity="0.55"/>
<circle cx="206.2" cy="212.9" r="3" fill="#4C78A8" opacity="0.55"/>
<circle cx="206.2" cy="294.8" r="3" fill="#4C78A8" opacity="0.55"/>
<circle cx="118.8" cy="268.5" r="3" fill="#4C78A8" opacity="0.55"/>
<circle cx="118.8" cy="330.0" r="3" fill="#4C78A8" opacity="0.55"/>
<circle cx="118.8" cy="327.0" r="3" fill="#4C78A8" opacity="0.55"/>
<circle cx="419.8" cy="356.3" r="3" fill="#4C78A8" opacity="0.55"/>
<circle cx="419.8" cy="192.4" r="3" fill="#4C78A8" opacity="0.55"/>
<circle cx="419.8" cy="271.4" r="3" fill="#4C78A8" opacity="0.55"/>
<circle cx="419.8" cy="350.5" r="3" fill="#4C78A8" opacity="0.55"/>
<circle cx="419.8" cy="300.7" r="3" fill="#4C78A8" opacity="0.55"/>
<circle cx="419.8" cy="344.6" r="3" fill="#4C78A8" opacity="0.55"/>
<circle cx="419.8" cy="221.6" r="3" fill="#4C78A8" opacity="0.55"/>
<circle cx="157.7" cy="291.9" r="3" fill="#4C78A8" opacity="0.55"/>
<circle cx="201.3" cy="253.9" r="3" fill="#4C78A8" opacity="0.55"/>
<circle cx="201.3" cy="250.9" r="3" fill="#4C78A8" opacity="0.55"/>
<circle cx="201.3" cy="262.6" r="3" fill="#4C78A8" opacity="0.55"/>
<circle cx="109.1" cy="347.5" r="3" fill="#4C78A8" opacity="0.55"/>
<circle cx="376.1" cy="212.9" r="3" fill="#4C78A8" opacity="0.55"/>
<circle cx="376.1" cy="245.1" r="3" fill="#4C78A8" opacity="0.55"/>
<circle cx="376.1" cy="245.1" r="3" fill="#4C78A8" opacity="0.55"/>
<circle cx="395.5" cy="233.4" r="3" fill="#4C78A8" opacity="0.55"/>
<circle cx="186.8" cy="268.5" r="3" fill="#4C78A8" opacity="0.55"/>
<circle cx="186.8" cy="248.0" r="3" fill="#4C78A8" opacity="0.55"/>
<circle cx="191.6" cy="338.8" r="3" fill="#4C78A8" opacity="0.55"/>
<circle cx="191.6" cy="338.8" r="3" fill="#4C78A8" opacity="0.55"/>
<circle cx="390.6" cy="242.1" r="3" fill="#4C78A8" opacity="0.55"/>
<circle cx="390.6" cy="242.1" r="3" fill="#4C78A8" opacity="0.55"/>
<circle cx="298.4" cy="309.5" r="3" fill="#4C78A8" opacity="0.55"/>
<circle cx="298.4" cy="283.1" r="3" fill="#4C78A8" opacity="0.55"/>
<circle cx="385.8" cy="303.6" r="3" fill="#4C78A8" opacity="0.55"/>
<circle cx="385.8" cy="338.8" r="3" fill="#4C78A8" opacity="0.55"/>
<circle cx="259.6" cy="327.0" r="3" fill="#4C78A8" opacity="0.55"/>
<circle cx="206.2" cy="341.7" r="3" fill="#4C78A8" opacity="0.55"/>
<circle cx="206.2" cy="344.6" r="3" fill="#4C78A8" opacity="0.55"/>
<circle cx="206.2" cy="344.6" r="3" fill="#4C78A8" opacity="0.55"/>
<circle cx="206.2" cy="344.6" r="3" fill="#4C78A8" opacity="0.55"/>
<circle cx="206.2" cy="335.8" r="3" fill="#4C78A8" opacity="0.55"/>
<circle cx="206.2" cy="335.8" r="3" fill="#4C78A8" opacity="0.55"/>
<circle cx="206.2" cy="344.6" r="3" fill="#4C78A8" opacity="0.55"/>
<circle cx="206.2" cy="341.7" r="3" fill="#4C78A8" opacity="0.55"/>
<circle cx="206.2" cy="344.6" r="3" fill="#4C78A8" opacity="0.55"/>
<circle cx="206.2" cy="335.8" r="3" fill="#4C78A8" opacity="0.55"/>
<circle cx="376.1" cy="315.3" r="3" fill="#4C78A8" opacity="0.55"/>
<circle cx="376.1" cy="350.5" r="3" fill="#4C78A8" opacity="0.55"/>
<circle cx="114.0" cy="341.7" r="3" fill="#4C78A8" opacity="0.55"/>
<circle cx="114.0" cy="212.9" r="3" fill="#4C78A8" opacity="0.55"/>
<circle cx="380.9" cy="362.2" r="3" fill="#4C78A8" opacity="0.55"/>
<circle cx="380.9" cy="283.1" r="3" fill="#4C78A8" opacity="0.55"/>
<circle cx="380.9" cy="362.2" r="3" fill="#4C78A8" opacity="0.55"/>
<circle cx="380.9" cy="294.8" r="3" fill="#4C78A8" opacity="0.55"/>
<circle cx="380.9" cy="286.1" r="3" fill="#4C78A8" opacity="0.55"/>
<circle cx="380.9" cy="341.7" r="3" fill="#4C78A8" opacity="0.55"/>
<circle cx="376.1" cy="195.3" r="3" fill="#4C78A8" opacity="0.55"/>
<circle cx="376.1" cy="303.6" r="3" fill="#4C78A8" opacity="0.55"/>
<circle cx="424.6" cy="353.4" r="3" fill="#4C78A8" opacity="0.55"/>
<circle cx="424.6" cy="344.6" r="3" fill="#4C78A8" opacity="0.55"/>
<circle cx="133.4" cy="353.4" r="3" fill="#4C78A8" opacity="0.55"/>
<circle cx="133.4" cy="280.2" r="3" fill="#4C78A8" opacity="0.55"/>
<circle cx="211.0" cy="256.8" r="3" fill="#4C78A8" opacity="0.55"/>
<circle cx="211.0" cy="321.2" r="3" fill="#4C78A8" opacity="0.55"/>
<circle cx="211.0" cy="265.6" r="3" fill="#4C78A8" opacity="0.55"/>
<circle cx="157.7" cy="356.3" r="3" fill="#4C78A8" opacity="0.55"/>
<circle cx="157.7" cy="356.3" r="3" fill="#4C78A8" opacity="0.55"/>
<circle cx="157.7" cy="356.3" r="3" fill="#4C78A8" opacity="0.55"/>
<circle cx="157.7" cy="186.5" r="3" fill="#4C78A8" opacity="0.55"/>
<circle cx="356.7" cy="368.0" r="3" fill="#4C78A8" opacity="0.55"/>
<circle cx="356.7" cy="368.0" r="3" fill="#4C78A8" opacity="0.55"/>
<circle cx="356.7" cy="368.0" r="3" fill="#4C78A8" opacity="0.55"/>
<circle cx="356.7" cy="371.0" r="3" fill="#4C78A8" opacity="0.55"/>
<circle cx="414.9" cy="318.3" r="3" fill="#4C78A8" opacity="0.55"/>
<circle cx="414.9" cy="388.5" r="3" fill="#4C78A8" opacity="0.55"/>
<circle cx="414.9" cy="362.2" r="3" fill="#4C78A8" opacity="0.55"/>
<circle cx="414.9" cy="365.1" r="3" fill="#4C78A8" opacity="0.55"/>
<circle cx="414.9" cy="256.8" r="3" fill="#4C78A8" opacity="0.55"/>
<circle cx="405.2" cy="271.4" r="3" fill="#4C78A8" opacity="0.55"/>
<circle cx="405.2" cy="332.9" r="3" fill="#4C78A8" opacity="0.55"/>
<circle cx="376.1" cy="341.7" r="3" fill="#4C78A8" opacity="0.55"/>
<circle cx="376.1" cy="341.7" r="3" fill="#4C78A8" opacity="0.55"/>
<circle cx="376.1" cy="341.7" r="3" fill="#4C78A8" opacity="0.55"/>
<circle cx="376.1" cy="324.1" r="3" fill="#4C78A8" opacity="0.55"/>
<circle cx="376.1" cy="324.1" r="3" fill="#4C78A8" opacity="0.55"/>
<circle cx="114.0" cy="253.9" r="3" fill="#4C78A8" opacity="0.55"/>
<circle cx="114.0" cy="204.1" r="3" fill="#4C78A8" opacity="0.55"/>
<circle cx="114.0" cy="312.4" r="3" fill="#4C78A8" opacity="0.55"/>
<circle cx="114.0" cy="227.5" r="3" fill="#4C78A8" opacity="0.55"/>
<circle cx="114.0" cy="274.3" r="3" fill="#4C78A8" opacity="0.55"/>
<circle cx="114.0" cy="271.4" r="3" fill="#4C78A8" opacity="0.55"/>
<circle cx="410.0" cy="350.5" r="3" fill="#4C78A8" opacity="0.55"/>
<circle cx="410.0" cy="356.3" r="3" fill="#4C78A8" opacity="0.55"/>
<circle cx="410.0" cy="350.5" r="3" fill="#4C78A8" opacity="0.55"/>
<circle cx="410.0" cy="327.0" r="3" fill="#4C78A8" opacity="0.55"/>
<circle cx="400.3" cy="283.1" r="3" fill="#4C78A8" opacity="0.55"/>
<circle cx="400.3" cy="277.3" r="3" fill="#4C78A8" opacity="0.55"/>
<circle cx="400.3" cy="277.3" r="3" fill="#4C78A8" opacity="0.55"/>
<circle cx="400.3" cy="277.3" r="3" fill="#4C78A8" opacity="0.55"/>
<circle cx="400.3" cy="227.5" r="3" fill="#4C78A8" opacity="0.55"/>
<circle cx="400.3" cy="227.5" r="3" fill="#4C78A8" opacity="0.55"/>
<circle cx="400.3" cy="236.3" r="3" fill="#4C78A8" opacity="0.55"/>
<circle cx="376.1" cy="353.4" r="3" fill="#4C78A8" opacity="0.55"/>
<circle cx="376.1" cy="353.4" r="3" fill="#4C78A8" opacity="0.55"/>
<circle cx="361.5" cy="198.2" r="3" fill="#4C78A8" opacity="0.55"/>
<circle cx="361.5" cy="362.2" r="3" fill="#4C78A8" opacity="0.55"/>
<circle cx="361.5" cy="215.8" r="3" fill="#4C78A8" opacity="0.55"/>
<circle cx="361.5" cy="341.7" r="3" fill="#4C78A8" opacity="0.55"/>
<circle cx="211.0" cy="294.8" r="3" fill="#4C78A8" opacity="0.55"/>
<circle cx="211.0" cy="294.8" r="3" fill="#4C78A8" opacity="0.55"/>
<circle cx="211.0" cy="294.8" r="3" fill="#4C78A8" opacity="0.55"/>
<circle cx="211.0" cy="294.8" r="3" fill="#4C78A8" opacity="0.55"/>
<circle cx="148.0" cy="344.6" r="3" fill="#4C78A8" opacity="0.55"/>
<circle cx="148.0" cy="344.6" r="3" fill="#4C78A8" opacity="0.55"/>
<circle cx="380.9" cy="180.7" r="3" fill="#4C78A8" opacity="0.55"/>
<circle cx="380.9" cy="201.2" r="3" fill="#4C78A8" opacity="0.55"/>
<circle cx="380.9" cy="280.2" r="3" fill="#4C78A8" opacity="0.55"/>
<circle cx="439.2" cy="262.6" r="3" fill="#4C78A8" opacity="0.55"/>
<circle cx="385.8" cy="201.2" r="3" fill="#4C78A8" opacity="0.55"/>
<circle cx="385.8" cy="218.7" r="3" fill="#4C78A8" opacity="0.55"/>
<circle cx="385.8" cy="306.5" r="3" fill="#4C78A8" opacity="0.55"/>
<circle cx="385.8" cy="239.2" r="3" fill="#4C78A8" opacity="0.55"/>
<circle cx="395.5" cy="332.9" r="3" fill="#4C78A8" opacity="0.55"/>
<circle cx="395.5" cy="286.1" r="3" fill="#4C78A8" opacity="0.55"/>
<circle cx="395.5" cy="277.3" r="3" fill="#4C78A8" opacity="0.55"/>
<circle cx="400.3" cy="318.3" r="3" fill="#4C78A8" opacity="0.55"/>
<circle cx="400.3" cy="286.1" r="3" fill="#4C78A8" opacity="0.55"/>
<circle cx="400.3" cy="297.8" r="3" fill="#4C78A8" opacity="0.55"/>
<circle cx="419.8" cy="283.1" r="3" fill="#4C78A8" opacity="0.55"/>
<circle cx="419.8" cy="283.1" r="3" fill="#4C78A8" opacity="0.55"/>
<circle cx="196.5" cy="350.5" r="3" fill="#4C78A8" opacity="0.55"/>
<circle cx="196.5" cy="350.5" r="3" fill="#4C78A8" opacity="0.55"/>
<circle cx="196.5" cy="373.9" r="3" fill="#4C78A8" opacity="0.55"/>
<circle cx="196.5" cy="350.5" r="3" fill="#4C78A8" opacity="0.55"/>
<circle cx="196.5" cy="350.5" r="3" fill="#4C78A8" opacity="0.55"/>
<circle cx="123.7" cy="353.4" r="3" fill="#4C78A8" opacity="0.55"/>
<circle cx="269.3" cy="268.5" r="3" fill="#4C78A8" opacity="0.55"/>
<circle cx="269.3" cy="268.5" r="3" fill="#4C78A8" opacity="0.55"/>
<circle cx="376.1" cy="332.9" r="3" fill="#4C78A8" opacity="0.55"/>
<circle cx="376.1" cy="347.5" r="3" fill="#4C78A8" opacity="0.55"/>
<circle cx="376.1" cy="332.9" r="3" fill="#4C78A8" opacity="0.55"/>
<circle cx="376.1" cy="347.5" r="3" fill="#4C78A8" opacity="0.55"/>
<circle cx="376.1" cy="332.9" r="3" fill="#4C78A8" opacity="0.55"/>
<circle cx="376.1" cy="335.8" r="3" fill="#4C78A8" opacity="0.55"/>
<circle cx="376.1" cy="347.5" r="3" fill="#4C78A8" opacity="0.55"/>
<circle cx="376.1" cy="350.5" r="3" fill="#4C78A8" opacity="0.55"/>
<circle cx="376.1" cy="350.5" r="3" fill="#4C78A8" opacity="0.55"/>
<circle cx="400.3" cy="289.0" r="3" fill="#4C78A8" opacity="0.55"/>
<circle cx="400.3" cy="218.7" r="3" fill="#4C78A8" opacity="0.55"/>
<circle cx="400.3" cy="230.4" r="3" fill="#4C78A8" opacity="0.55"/>
<circle cx="172.2" cy="324.1" r="3" fill="#4C78A8" opacity="0.55"/>
<circle cx="172.2" cy="324.1" r="3" fill="#4C78A8" opacity="0.55"/>
<circle cx="172.2" cy="315.3" r="3" fill="#4C78A8" opacity="0.55"/>
<circle cx="172.2" cy="294.8" r="3" fill="#4C78A8" opacity="0.55"/>
<circle cx="215.9" cy="338.8" r="3" fill="#4C78A8" opacity="0.55"/>
<circle cx="215.9" cy="309.5" r="3" fill="#4C78A8" opacity="0.55"/>
<circle cx="215.9" cy="312.4" r="3" fill="#4C78A8" opacity="0.55"/>
<circle cx="215.9" cy="209.9" r="3" fill="#4C78A8" opacity="0.55"/>
<circle cx="400.3" cy="300.7" r="3" fill="#4C78A8" opacity="0.55"/>
<circle cx="400.3" cy="347.5" r="3" fill="#4C78A8" opacity="0.55"/>
<circle cx="395.5" cy="312.4" r="3" fill="#4C78A8" opacity="0.55"/>
<circle cx="429.5" cy="359.2" r="3" fill="#4C78A8" opacity="0.55"/>
<circle cx="429.5" cy="195.3" r="3" fill="#4C78A8" opacity="0.55"/>
<circle cx="308.1" cy="239.2" r="3" fill="#4C78A8" opacity="0.55"/>
<circle cx="385.8" cy="286.1" r="3" fill="#4C78A8" opacity="0.55"/>
<circle cx="385.8" cy="274.3" r="3" fill="#4C78A8" opacity="0.55"/>
<circle cx="385.8" cy="259.7" r="3" fill="#4C78A8" opacity="0.55"/>
<circle cx="215.9" cy="344.6" r="3" fill="#4C78A8" opacity="0.55"/>
<circle cx="444.0" cy="332.9" r="3" fill="#4C78A8" opacity="0.55"/>
<circle cx="444.0" cy="332.9" r="3" fill="#4C78A8" opacity="0.55"/>
<circle cx="196.5" cy="291.9" r="3" fill="#4C78A8" opacity="0.55"/>
<circle cx="196.5" cy="239.2" r="3" fill="#4C78A8" opacity="0.55"/>
<circle cx="453.7" cy="379.7" r="3" fill="#4C78A8" opacity="0.55"/>
<circle cx="453.7" cy="324.1" r="3" fill="#4C78A8" opacity="0.55"/>
<circle cx="453.7" cy="379.7" r="3" fill="#4C78A8" opacity="0.55"/>
<circle cx="371.2" cy="321.2" r="3" fill="#4C78A8" opacity="0.55"/>
<circle cx="371.2" cy="335.8" r="3" fill="#4C78A8" opacity="0.55"/>
<circle cx="390.6" cy="110.4" r="3" fill="#4C78A8" opacity="0.55"/>
<circle cx="400.3" cy="271.4" r="3" fill="#4C78A8" opacity="0.55"/>
<circle cx="400.3" cy="271.4" r="3" fill="#4C78A8" opacity="0.55"/>
<circle cx="400.3" cy="268.5" r="3" fill="#4C78A8" opacity="0.55"/>
<circle cx="128.5" cy="344.6" r="3" fill="#4C78A8" opacity="0.55"/>
<circle cx="128.5" cy="233.4" r="3" fill="#4C78A8" opacity="0.55"/>
<circle cx="283.9" cy="330.0" r="3" fill="#4C78A8" opacity="0.55"/>
<circle cx="283.9" cy="330.0" r="3" fill="#4C78A8" opacity="0.55"/>
<circle cx="361.5" cy="353.4" r="3" fill="#4C78A8" opacity="0.55"/>
</svg>