<svg xmlns="http://www.w3.org/2000/svg" width="820" height="500" viewBox="0 0 820 500" role="img" aria-label="Metric distributions: enriched VLM LoRA test">
<style>
text{font-family:Arial,Helvetica,sans-serif;fill:#222}.title{font-size:22px;font-weight:700}.axis-label{font-size:14px;font-weight:600}.tick{font-size:11px;fill:#555}.label{font-size:12px}.value{font-size:12px;font-weight:700}.axis{stroke:#333;stroke-width:1.3}.grid{stroke:#ddd;stroke-width:1}
</style>
<rect width="100%" height="100%" fill="white"/>
<text x="410.0" y="32" text-anchor="middle" class="title">Metric distributions: enriched VLM LoRA test</text>
<line x1="80" y1="70" x2="80" y2="410" class="axis"/>
<line x1="80" y1="410" x2="780" y2="410" class="axis"/>
<line x1="75" y1="410.0" x2="780" y2="410.0" class="grid"/>
<text x="70" y="414.0" text-anchor="end" class="tick">0.00</text>
<line x1="75" y1="342.0" x2="780" y2="342.0" class="grid"/>
<text x="70" y="346.0" text-anchor="end" class="tick">0.17</text>
<line x1="75" y1="274.0" x2="780" y2="274.0" class="grid"/>
<text x="70" y="278.0" text-anchor="end" class="tick">0.34</text>
<line x1="75" y1="206.0" x2="780" y2="206.0" class="grid"/>
<text x="70" y="210.0" text-anchor="end" class="tick">0.51</text>
<line x1="75" y1="138.0" x2="780" y2="138.0" class="grid"/>
<text x="70" y="142.0" text-anchor="end" class="tick">0.68</text>
<line x1="75" y1="70.0" x2="780" y2="70.0" class="grid"/>
<text x="70" y="74.0" text-anchor="end" class="tick">0.85</text>
<line x1="167.5" y1="192.6" x2="167.5" y2="352.3" stroke="#4C78A8" stroke-width="2"/>
<rect x="137.5" y="242.9" width="60" height="43.0" fill="#4C78A8" opacity="0.35" stroke="#4C78A8" stroke-width="2"/>
<line x1="137.5" y1="266.0" x2="197.5" y2="266.0" stroke="#4C78A8" stroke-width="3"/>
<text x="167.5" y="438" text-anchor="middle" class="label">chrF</text>
<text x="167.5" y="456" text-anchor="middle" class="tick">med=0.36</text>
<line x1="342.5" y1="224.6" x2="342.5" y2="371.5" stroke="#F58518" stroke-width="2"/>
<rect x="312.5" y="294.9" width="60" height="30.7" fill="#F58518" opacity="0.35" stroke="#F58518" stroke-width="2"/>
<line x1="312.5" y1="313.1" x2="372.5" y2="313.1" stroke="#F58518" stroke-width="3"/>
<text x="342.5" y="438" text-anchor="middle" class="label">ROUGE-L</text>
<text x="342.5" y="456" text-anchor="middle" class="tick">med=0.24</text>
<line x1="517.5" y1="183.0" x2="517.5" y2="364.5" stroke="#54A24B" stroke-width="2"/>
<rect x="487.5" y="262.3" width="60" height="40.5" fill="#54A24B" opacity="0.35" stroke="#54A24B" stroke-width="2"/>
<line x1="487.5" y1="282.4" x2="547.5" y2="282.4" stroke="#54A24B" stroke-width="3"/>
<text x="517.5" y="438" text-anchor="middle" class="label">Token F1</text>
<text x="517.5" y="456" text-anchor="middle" class="tick">med=0.32</text>
<line x1="692.5" y1="70.3" x2="692.5" y2="147.2" stroke="#B279A2" stroke-width="2"/>
<rect x="662.5" y="107.4" width="60" height="14.8" fill="#B279A2" opacity="0.35" stroke="#B279A2" stroke-width="2"/>
<line x1="662.5" y1="115.7" x2="722.5" y2="115.7" stroke="#B279A2" stroke-width="3"/>
<text x="692.5" y="438" text-anchor="middle" class="label">BERTScore</text>
<text x="692.5" y="456" text-anchor="middle" class="tick">med=0.74</text>
</svg>