<svg xmlns="http://www.w3.org/2000/svg" width="820" height="480" viewBox="0 0 820 480" role="img" aria-label="QLoRA training curve: dataset_enriched">
<style>
text{font-family:Arial,Helvetica,sans-serif;fill:#222}.title{font-size:22px;font-weight:700}.axis-label{font-size:14px;font-weight:600}.tick{font-size:11px;fill:#555}.label{font-size:12px}.value{font-size:12px;font-weight:700}.axis{stroke:#333;stroke-width:1.3}.grid{stroke:#ddd;stroke-width:1}
</style>
<rect width="100%" height="100%" fill="white"/>
<text x="410.0" y="32" text-anchor="middle" class="title">QLoRA training curve: dataset_enriched</text>
<text x="390.0" y="458" text-anchor="middle" class="axis-label">Step</text>
<text x="22" y="240.0" transform="rotate(-90 22 240.0)" text-anchor="middle" class="axis-label">Loss</text>
<line x1="80" y1="70" x2="80" y2="410" class="axis"/>
<line x1="80" y1="410" x2="700" y2="410" class="axis"/>
<line x1="80.0" y1="70" x2="80.0" y2="410" class="grid"/>
<text x="80.0" y="430" text-anchor="middle" class="tick">0</text>
<line x1="75" y1="410.0" x2="700" y2="410.0" class="grid"/>
<text x="70" y="414.0" text-anchor="end" class="tick">1.17</text>
<line x1="204.0" y1="70" x2="204.0" y2="410" class="grid"/>
<text x="204.0" y="430" text-anchor="middle" class="tick">31</text>
<line x1="75" y1="342.0" x2="700" y2="342.0" class="grid"/>
<text x="70" y="346.0" text-anchor="end" class="tick">1.55</text>
<line x1="328.0" y1="70" x2="328.0" y2="410" class="grid"/>
<text x="328.0" y="430" text-anchor="middle" class="tick">62</text>
<line x1="75" y1="274.0" x2="700" y2="274.0" class="grid"/>
<text x="70" y="278.0" text-anchor="end" class="tick">1.92</text>
<line x1="452.0" y1="70" x2="452.0" y2="410" class="grid"/>
<text x="452.0" y="430" text-anchor="middle" class="tick">93</text>
<line x1="75" y1="206.0" x2="700" y2="206.0" class="grid"/>
<text x="70" y="210.0" text-anchor="end" class="tick">2.29</text>
<line x1="576.0" y1="70" x2="576.0" y2="410" class="grid"/>
<text x="576.0" y="430" text-anchor="middle" class="tick">124</text>
<line x1="75" y1="138.0" x2="700" y2="138.0" class="grid"/>
<text x="70" y="142.0" text-anchor="end" class="tick">2.67</text>
<line x1="700.0" y1="70" x2="700.0" y2="410" class="grid"/>
<text x="700.0" y="430" text-anchor="middle" class="tick">155</text>
<line x1="75" y1="70.0" x2="700" y2="70.0" class="grid"/>
<text x="70" y="74.0" text-anchor="end" class="tick">3.04</text>
<polyline points="120.0,120.3 160.0,255.4 200.0,288.1 240.0,305.4 280.0,311.8 320.0,336.1 360.0,339.8 400.0,345.9 440.0,351.1 480.0,361.5 520.0,352.1 560.0,354.4 600.0,369.0 640.0,372.0 680.0,372.3" fill="none" stroke="#4C78A8" stroke-width="2.6"/>
<circle cx="120.0" cy="120.3" r="3.5" fill="#4C78A8"/>
<circle cx="160.0" cy="255.4" r="3.5" fill="#4C78A8"/>
<circle cx="200.0" cy="288.1" r="3.5" fill="#4C78A8"/>
<circle cx="240.0" cy="305.4" r="3.5" fill="#4C78A8"/>
<circle cx="280.0" cy="311.8" r="3.5" fill="#4C78A8"/>
<circle cx="320.0" cy="336.1" r="3.5" fill="#4C78A8"/>
<circle cx="360.0" cy="339.8" r="3.5" fill="#4C78A8"/>
<circle cx="400.0" cy="345.9" r="3.5" fill="#4C78A8"/>
<circle cx="440.0" cy="351.1" r="3.5" fill="#4C78A8"/>
<circle cx="480.0" cy="361.5" r="3.5" fill="#4C78A8"/>
<circle cx="520.0" cy="352.1" r="3.5" fill="#4C78A8"/>
<circle cx="560.0" cy="354.4" r="3.5" fill="#4C78A8"/>
<circle cx="600.0" cy="369.0" r="3.5" fill="#4C78A8"/>
<circle cx="640.0" cy="372.0" r="3.5" fill="#4C78A8"/>
<circle cx="680.0" cy="372.3" r="3.5" fill="#4C78A8"/>
<polyline points="280.0,283.8 480.0,287.6 680.0,286.5 700.0,286.5 700.0,287.6" fill="none" stroke="#E45756" stroke-width="2.6"/>
<circle cx="280.0" cy="283.8" r="3.5" fill="#E45756"/>
<circle cx="480.0" cy="287.6" r="3.5" fill="#E45756"/>
<circle cx="680.0" cy="286.5" r="3.5" fill="#E45756"/>
<circle cx="700.0" cy="286.5" r="3.5" fill="#E45756"/>
<circle cx="700.0" cy="287.6" r="3.5" fill="#E45756"/>
<rect x="710" y="70" width="14" height="14" fill="#4C78A8"/>
<text x="730" y="82" class="label">train loss</text>
<rect x="710" y="96" width="14" height="14" fill="#E45756"/>
<text x="730" y="108" class="label">eval loss</text>
</svg>