<svg xmlns="http://www.w3.org/2000/svg" width="820" height="500" viewBox="0 0 820 500" role="img" aria-label="VLM latency vs semantic quality">
<style>
text{font-family:Arial,Helvetica,sans-serif;fill:#222}.title{font-size:22px;font-weight:700}.axis-label{font-size:14px;font-weight:600}.tick{font-size:11px;fill:#555}.label{font-size:12px}.value{font-size:12px;font-weight:700}.axis{stroke:#333;stroke-width:1.3}.grid{stroke:#ddd;stroke-width:1}
</style>
<rect width="100%" height="100%" fill="white"/>
<text x="410.0" y="32" text-anchor="middle" class="title">VLM latency vs semantic quality</text>
<text x="425.0" y="478" text-anchor="middle" class="axis-label">Mean latency (seconds/example)</text>
<text x="22" y="247.5" transform="rotate(-90 22 247.5)" text-anchor="middle" class="axis-label">BERTScore F1</text>
<line x1="80" y1="70" x2="80" y2="425" class="axis"/>
<line x1="80" y1="425" x2="770" y2="425" class="axis"/>
<line x1="80.0" y1="70" x2="80.0" y2="430" class="grid"/>
<text x="80.0" y="447" text-anchor="middle" class="tick">0</text>
<line x1="75" y1="425.0" x2="770" y2="425.0" class="grid"/>
<text x="70" y="429.0" text-anchor="end" class="tick">0.60</text>
<line x1="218.0" y1="70" x2="218.0" y2="430" class="grid"/>
<text x="218.0" y="447" text-anchor="middle" class="tick">11</text>
<line x1="75" y1="354.0" x2="770" y2="354.0" class="grid"/>
<text x="70" y="358.0" text-anchor="end" class="tick">0.63</text>
<line x1="356.0" y1="70" x2="356.0" y2="430" class="grid"/>
<text x="356.0" y="447" text-anchor="middle" class="tick">22</text>
<line x1="75" y1="283.0" x2="770" y2="283.0" class="grid"/>
<text x="70" y="287.0" text-anchor="end" class="tick">0.67</text>
<line x1="494.0" y1="70" x2="494.0" y2="430" class="grid"/>
<text x="494.0" y="447" text-anchor="middle" class="tick">32</text>
<line x1="75" y1="212.0" x2="770" y2="212.0" class="grid"/>
<text x="70" y="216.0" text-anchor="end" class="tick">0.70</text>
<line x1="632.0" y1="70" x2="632.0" y2="430" class="grid"/>
<text x="632.0" y="447" text-anchor="middle" class="tick">43</text>
<line x1="75" y1="141.0" x2="770" y2="141.0" class="grid"/>
<text x="70" y="145.0" text-anchor="end" class="tick">0.73</text>
<line x1="770.0" y1="70" x2="770.0" y2="430" class="grid"/>
<text x="770.0" y="447" text-anchor="middle" class="tick">54</text>
<line x1="75" y1="70.0" x2="770" y2="70.0" class="grid"/>
<text x="70" y="74.0" text-anchor="end" class="tick">0.77</text>
<circle cx="680.0" cy="133.0" r="7" fill="#4C78A8"/>
<text x="690.0" y="125.0" class="label">Enriched VLM LoRA case-avg</text>
<circle cx="421.3" cy="362.0" r="7" fill="#E45756"/>
<text x="431.3" y="354.0" class="label">Longest VLM zero-shot</text>
<circle cx="240.1" cy="280.1" r="7" fill="#54A24B"/>
<text x="250.1" y="272.1" class="label">Longest VLM LoRA</text>
</svg>